<?xml version="1.0" encoding="utf-8"?><svg xmlns="http://www.w3.org/2000/svg" xmlns:xlink="http://www.w3.org/1999/xlink" width="1434" height="714" preserveAspectRatio="xMidYMid" viewBox="0 0 1434 714" style="z-index:1;margin-right:-1.6px;display:block;background-color:rgb(241, 242, 243);animation-play-state:paused" ><g transform="translate(717,357) scale(1,1) translate(-717,-357)" style="transform:matrix(1, 0, 0, 1, 0, 0);animation-play-state:paused" ><linearGradient id="lg-0.42211416638904686" x1="0" x2="1" y1="0" y2="0" style="animation-play-state:paused" ><stop stop-color="#79681e" offset="0" style="animation-play-state:paused" ></stop>

  
<stop stop-color="#a49838" offset="1" style="animation-play-state:paused" ></stop></linearGradient>
<path d="M 0 0 L 0 601.796 Q 143.4 578.679 286.8 555.724 T 573.6 544.889 T 860.4 461.204 T 1147.2 452.447 T 1434 389.116 L 1434 0 Z" fill="url(#lg-0.42211416638904686)" opacity="0.2" style="opacity:0.2;animation-play-state:paused" ></path>
<path d="M 0 0 L 0 612.685 Q 143.4 645.021 286.8 620.662 T 573.6 502.346 T 860.4 439.634 T 1147.2 336.391 T 1434 303.32 L 1434 0 Z" fill="url(#lg-0.42211416638904686)" opacity="0.2" style="opacity:0.2;animation-play-state:paused" ></path>
<path d="M 0 0 L 0 621.681 Q 143.4 545.67 286.8 523.894 T 573.6 544.107 T 860.4 454.892 T 1147.2 325.314 T 1434 337.336 L 1434 0 Z" fill="url(#lg-0.42211416638904686)" opacity="0.2" style="opacity:0.2;animation-play-state:paused" ></path>
<path d="M 0 0 L 0 580.261 Q 143.4 639.643 286.8 608.12 T 573.6 443.829 T 860.4 362.104 T 1147.2 350.666 T 1434 233.149 L 1434 0 Z" fill="url(#lg-0.42211416638904686)" opacity="0.2" style="opacity:0.2;animation-play-state:paused" ></path>
<path d="M 0 0 L 0 672.61 Q 143.4 598.688 286.8 556.096 T 573.6 478.292 T 860.4 424.907 T 1147.2 337.843 T 1434 283.147 L 1434 0 Z" fill="url(#lg-0.42211416638904686)" opacity="0.2" style="opacity:0.2;animation-play-state:paused" ></path></g></svg>